<?xml version="1.0" encoding="UTF-8" standalone="no"?>
<!-- Created with Inkscape (http://www.inkscape.org/) -->

<svg
   xmlns:dc="http://purl.org/dc/elements/1.1/"
   xmlns:cc="http://creativecommons.org/ns#"
   xmlns:rdf="http://www.w3.org/1999/02/22-rdf-syntax-ns#"
   xmlns:svg="http://www.w3.org/2000/svg"
   xmlns="http://www.w3.org/2000/svg"
   xmlns:sodipodi="http://sodipodi.sourceforge.net/DTD/sodipodi-0.dtd"
   xmlns:inkscape="http://www.inkscape.org/namespaces/inkscape"
   width="210mm"
   height="297mm"
   viewBox="0 0 210 297"
   version="1.1"
   id="svg8"
   inkscape:version="0.92.3 (2405546, 2018-03-11)"
   sodipodi:docname="logo_euge.svg">
  <defs
     id="defs2" />
  <sodipodi:namedview
     id="base"
     pagecolor="#ffffff"
     bordercolor="#666666"
     borderopacity="1.0"
     inkscape:pageopacity="0.0"
     inkscape:pageshadow="2"
     inkscape:zoom="1.4142136"
     inkscape:cx="219.48516"
     inkscape:cy="784.00946"
     inkscape:document-units="mm"
     inkscape:current-layer="layer1"
     showgrid="false"
     inkscape:window-width="1280"
     inkscape:window-height="737"
     inkscape:window-x="-8"
     inkscape:window-y="-8"
     inkscape:window-maximized="1" />
  <metadata
     id="metadata5">
    <rdf:RDF>
      <cc:Work
         rdf:about="">
        <dc:format>image/svg+xml</dc:format>
        <dc:type
           rdf:resource="http://purl.org/dc/dcmitype/StillImage" />
        <dc:title></dc:title>
      </cc:Work>
    </rdf:RDF>
  </metadata>
  <g
     inkscape:label="Capa 1"
     inkscape:groupmode="layer"
     id="layer1">
    <g
       id="g902"
       inkscape:export-xdpi="119.13861"
       inkscape:export-ydpi="119.13861">
      <g
         transform="translate(5.0709896,-2.5971779)"
         inkscape:label="Capa 1"
         id="layer1-1">
        <text
           xml:space="preserve"
           style="font-style:normal;font-variant:normal;font-weight:normal;font-stretch:normal;font-size:11.28888893px;line-height:1.25;font-family:Verdana;-inkscape-font-specification:Verdana;letter-spacing:0px;word-spacing:0px;fill:#4a4a4a;fill-opacity:1;stroke:none;stroke-width:0.26458332"
           x="46.491066"
           y="65.300591"
           id="text858"><tspan
             sodipodi:role="line"
             id="tspan856"
             x="46.491066"
             y="65.300591"
             style="font-style:normal;font-variant:normal;font-weight:normal;font-stretch:normal;font-family:'Arial Rounded MT Bold';-inkscape-font-specification:'Arial Rounded MT Bold, ';fill:#4a4a4a;fill-opacity:1;stroke-width:0.26458332">dental</tspan></text>
      </g>
      <g
         transform="matrix(0.35065699,0,0,0.35065699,16.358581,20.580453)"
         id="g885">
        <path
           inkscape:connector-curvature="0"
           id="path889"
           d="m 68.689274,132.68193 c -9.169685,-1.98934 -16.046823,-8.25059 -18.767016,-17.08634 -3.017442,-9.80126 1.025037,-21.375178 9.476708,-27.132504 6.678884,-4.549694 15.56962,-5.589637 23.067417,-2.698181 4.852938,1.871491 9.555509,5.918087 12.225518,10.520144 4.430014,7.635621 4.411387,17.189171 -0.04829,24.767021 -1.815463,3.08483 -6.079075,7.279 -9.050896,8.90348 -2.594348,1.41815 -5.477095,2.45415 -7.9375,2.85257 -2.35617,0.38155 -6.921755,0.31729 -8.965941,-0.12619 z m 10.413183,-7.6531 c 1.847954,-0.64986 2.207837,-0.70116 2.910417,-0.41483 1.056709,0.43064 7.793054,0.82657 8.41977,0.49487 0.400941,-0.2122 0.462325,-0.54536 0.396875,-2.15391 l -0.07743,-1.90289 -1.984066,-0.0791 c -1.091237,-0.0435 -2.08943,-0.18443 -2.218208,-0.31321 -0.1358,-0.1358 0.156152,-0.76936 0.695116,-1.50844 2.450163,-3.3599 3.483951,-6.48109 3.489267,-10.5347 0.0066,-5.03246 -1.558653,-8.783011 -5.153906,-12.34948 -1.652522,-1.639292 -2.524371,-2.259746 -4.523076,-3.218862 -2.968199,-1.424347 -4.464101,-1.761871 -7.808606,-1.761871 -2.918539,0 -5.042487,0.4743 -7.496962,1.674149 -5.760793,2.816114 -9.403544,8.343214 -9.730262,14.763594 -0.260934,5.12763 1.40974,9.43201 5.074061,13.07296 2.371752,2.35663 4.405375,3.57861 7.563933,4.54507 1.702041,0.5208 2.43611,0.59445 5.159375,0.51767 2.652083,-0.0748 3.5223,-0.21164 5.2837,-0.83106 z m -9.266443,-3.95114 c -1.994018,-0.62455 -4.33068,-2.069 -5.715281,-3.53301 -1.252739,-1.32459 -1.336281,-1.48723 -0.920195,-1.79148 0.730364,-0.53406 3.778843,-1.00072 5.51111,-0.84364 2.344898,0.21263 4.507556,1.38281 6.642389,3.59412 0.974606,1.00952 1.772012,1.96907 1.772012,2.13234 0,0.16327 -0.305406,0.41297 -0.678683,0.55489 -0.956061,0.3635 -5.328377,0.28862 -6.611352,-0.11322 z m 8.845399,-5.53016 c -4.985959,-5.2834 -8.616145,-6.36481 -15.538211,-4.6287 -1.868359,0.4686 -2.24846,0.49705 -2.462029,0.18432 -0.45902,-0.67215 -0.08761,-5.51759 0.542742,-7.08067 1.515275,-3.75742 4.512289,-6.581547 8.190941,-7.718441 2.103982,-0.650238 5.695568,-0.695234 7.729317,-0.09683 4.210225,1.238796 7.860432,5.115411 8.829826,9.377511 0.520615,2.28897 0.520615,3.7749 0,6.06387 -0.616617,2.71106 -3.200495,6.65079 -4.335791,6.61092 -0.226115,-0.008 -1.556673,-1.22833 -2.956795,-2.71198 z"
           style="fill:#1993d4;stroke-width:0.26458335" />
        <path
           inkscape:connector-curvature="0"
           id="path887"
           d="m 69.850007,132.55811 c -7.655579,-1.1555 -14.640335,-6.296 -18.219846,-13.40906 -2.5453,-5.05792 -3.009756,-12.71038 -1.110139,-18.29085 1.331826,-3.912482 3.282154,-6.886549 6.553845,-9.994003 4.250972,-4.037576 10.435445,-6.456916 16.505583,-6.456916 2.305589,0 6.539471,0.780778 8.573682,1.58109 11.604575,4.56554 17.894688,16.977859 14.685146,28.978289 -0.557104,2.083 -1.147353,3.58254 -2.029955,5.15714 -1.002639,1.78875 -3.154839,4.76473 -3.445804,4.76473 -0.117454,0 -0.213553,-0.89592 -0.213553,-1.99092 0,-1.928 -0.02299,-1.99973 -0.727604,-2.26948 -0.412777,-0.15803 -1.328637,-0.2042 -2.116667,-0.10671 -1.63726,0.20256 -1.732595,-0.007 -0.643956,-1.41565 1.23544,-1.59857 2.076558,-3.23889 2.732958,-5.32974 0.517633,-1.64882 0.621813,-2.54363 0.616087,-5.29167 -0.0061,-2.93096 -0.09111,-3.54785 -0.747085,-5.42141 -1.53824,-4.393476 -4.64947,-8.087104 -8.509109,-10.101947 -2.923294,-1.526045 -4.970999,-2.028151 -8.331708,-2.042972 -3.254967,-0.01435 -5.266371,0.451873 -8.199509,1.900583 -2.694127,1.330658 -6.11096,4.694652 -7.50015,7.384166 -3.697079,7.15765 -2.426717,15.38661 3.239083,20.98165 4.983543,4.9213 11.965493,6.45669 18.553809,4.08016 1.718799,-0.62001 1.812068,-0.62662 2.803297,-0.1988 0.715547,0.30884 2.136873,0.48882 4.704192,0.59567 l 3.678846,0.15311 -2.091346,1.67047 c -2.507782,2.0031 -6.034022,3.76547 -9.102805,4.54947 -2.549832,0.65141 -7.155905,0.90115 -9.657292,0.5236 z"
           style="fill:#065ea0;stroke-width:0.26458335" />
      </g>
    </g>
  </g>
</svg>
